<svg width="24" height="18" viewBox="0 0 24 18" fill="none" xmlns="http://www.w3.org/2000/svg">
  <path
    d="M22.1519 0H1.8481C0.83038 0 0 0.83038 0 1.8481V16.1468C0 17.1646 0.83038 17.9949 1.8481 17.9949H22.1519C23.1696 17.9949 24 17.1646 24 16.1468V1.8481C24 0.83038 23.1696 0 22.1519 0ZM21.8835 1.36709L12.1266 9.71139L2.36962 1.36709H21.8835ZM22.6329 16.1468C22.6329 16.4101 22.4152 16.6278 22.1519 16.6278H1.8481C1.58481 16.6278 1.36709 16.4101 1.36709 16.1468V2.30886L11.681 11.1291C11.6861 11.1342 11.6962 11.1392 11.7013 11.1443C11.7063 11.1494 11.7165 11.1544 11.7215 11.1595C11.7367 11.1696 11.7468 11.1797 11.762 11.1848C11.7671 11.1899 11.7722 11.1899 11.7772 11.1949C11.7975 11.2051 11.8177 11.2152 11.838 11.2253C11.843 11.2253 11.8481 11.2304 11.8532 11.2304C11.8684 11.2354 11.8835 11.2456 11.9038 11.2506C11.9089 11.2506 11.919 11.2557 11.9241 11.2557C11.9392 11.2608 11.9544 11.2658 11.9696 11.2658C11.9747 11.2658 11.9848 11.2709 11.9899 11.2709C12.0051 11.2759 12.0253 11.2759 12.0405 11.281C12.0456 11.281 12.0506 11.281 12.0557 11.281C12.0759 11.281 12.1013 11.2861 12.1215 11.2861C12.1418 11.2861 12.1671 11.2861 12.1873 11.281C12.1924 11.281 12.1975 11.281 12.2025 11.281C12.2177 11.281 12.238 11.2759 12.2532 11.2709C12.2582 11.2709 12.2684 11.2658 12.2734 11.2658C12.2886 11.2608 12.3038 11.2557 12.319 11.2557C12.3241 11.2557 12.3342 11.2506 12.3392 11.2506C12.3544 11.2456 12.3696 11.2405 12.3899 11.2304C12.3949 11.2304 12.4 11.2253 12.4051 11.2253C12.4253 11.2152 12.4456 11.2051 12.4658 11.1949C12.4709 11.1899 12.4759 11.1899 12.481 11.1848C12.4962 11.1747 12.5063 11.1696 12.5215 11.1595C12.5266 11.1544 12.5367 11.1494 12.5418 11.1443C12.5468 11.1392 12.557 11.1342 12.562 11.1291L22.6329 2.52658V16.1468Z"
    fill="#231f20"/>
</svg>
