<svg width="16" height="20" viewBox="0 0 16 20" fill="none" xmlns="http://www.w3.org/2000/svg">
  <path
    d="M2.46402 0.532634L3.84729 0.115681C5.14979 -0.276926 6.54142 0.357563 7.09921 1.59834L7.96029 3.51378C8.43573 4.57137 8.18518 5.81429 7.33715 6.60509L5.833 8.00773C5.81441 8.02506 5.79915 8.04566 5.78797 8.06851C5.63065 8.39008 5.86905 9.24925 6.61864 10.5476C7.46351 12.0109 8.11653 12.59 8.41813 12.5001L10.3927 11.8964C11.5012 11.5575 12.7026 11.9617 13.3809 12.9017L14.6038 14.5966C15.3977 15.6969 15.2549 17.2149 14.2698 18.1478L13.218 19.1439C12.4751 19.8475 11.4348 20.1428 10.4331 19.9345C7.50204 19.3252 4.87598 16.9648 2.53289 12.9065C0.187486 8.84413 -0.542735 5.38688 0.399283 2.5423C0.719231 1.57617 1.4896 0.826351 2.46402 0.532634ZM2.82478 1.72948C2.24013 1.90571 1.77791 2.3556 1.58594 2.93528C0.774252 5.38629 1.43174 8.49917 3.61545 12.2815C5.79707 16.0602 8.16176 18.1856 10.6875 18.7107C11.2886 18.8356 11.9127 18.6584 12.3585 18.2363L13.4102 17.2402C13.9407 16.7379 14.0176 15.9205 13.5901 15.328L12.3672 13.6331C12.0019 13.127 11.3551 12.9093 10.7581 13.0918L8.77942 13.6968C7.68425 14.0232 6.65493 13.1105 5.53608 11.1726C4.58891 9.53203 4.2601 8.34704 4.66511 7.51917C4.74338 7.35919 4.85029 7.2149 4.98052 7.09348L6.48463 5.69087C6.94126 5.26506 7.07617 4.5958 6.82017 4.02632L5.95908 2.11088C5.65874 1.44277 4.9094 1.10112 4.20805 1.31252L2.82478 1.72948Z"
    fill="#231f20"/>
</svg>
