<svg xmlns="http://www.w3.org/2000/svg" xmlns:xlink="http://www.w3.org/1999/xlink"><symbol id="mail-icon"><g fill="none"><path d="M22.152 0H1.848C.83 0 0 .83 0 1.848v14.299c0 1.018.83 1.848 1.848 1.848h20.304c1.018 0 1.848-.83 1.848-1.848V1.848C24 .83 23.17 0 22.152 0Zm-.268 1.367-9.757 8.344L2.37 1.367h19.514Zm.749 14.78a.484.484 0 0 1-.481.48H1.848a.484.484 0 0 1-.48-.48V2.309l10.313 8.82c.005.005.015.01.02.015.005.005.015.01.02.015.016.01.026.02.041.026.005.005.01.005.015.01l.061.03c.005 0 .01.005.015.005.015.005.03.016.05.02.006 0 .016.006.021.006.015.005.03.01.046.01.005 0 .015.005.02.005.015.005.035.005.05.01h.016c.02 0 .045.005.066.005.02 0 .045 0 .065-.005h.016a.183.183 0 0 0 .05-.01c.005 0 .015-.005.02-.005.016-.005.03-.01.046-.01.005 0 .015-.005.02-.005a.346.346 0 0 0 .05-.02c.006 0 .011-.006.016-.006l.06-.03c.006-.005.01-.005.016-.01.015-.01.025-.015.04-.026.006-.005.016-.01.02-.015.006-.005.016-.01.021-.015l10.07-8.602v13.62Z" fill="#231f20"/></g></symbol><symbol id="phone-icon"><g fill="none"><path d="M2.464.533 3.847.116A2.708 2.708 0 0 1 7.1 1.598l.861 1.916a2.708 2.708 0 0 1-.623 3.091L5.833 8.008a.208.208 0 0 0-.045.06c-.157.322.081 1.181.83 2.48.846 1.463 1.499 2.042 1.8 1.952l1.975-.604a2.709 2.709 0 0 1 2.988 1.006l1.223 1.695a2.708 2.708 0 0 1-.334 3.55l-1.052.997a3.125 3.125 0 0 1-2.785.79c-2.931-.609-5.557-2.97-7.9-7.028C.187 8.845-.543 5.386.399 2.542A3.125 3.125 0 0 1 2.464.532Zm.36 1.196a1.875 1.875 0 0 0-1.238 1.206c-.812 2.451-.154 5.564 2.03 9.346 2.181 3.78 4.546 5.905 7.072 6.43a1.875 1.875 0 0 0 1.67-.475l1.052-.996c.53-.502.608-1.32.18-1.912l-1.223-1.695a1.459 1.459 0 0 0-1.609-.541l-1.979.605c-1.095.326-2.124-.586-3.243-2.524-.947-1.641-1.276-2.826-.87-3.654.077-.16.184-.304.315-.426l1.504-1.402a1.458 1.458 0 0 0 .335-1.665l-.86-1.915a1.458 1.458 0 0 0-1.752-.798l-1.383.416Z" fill="#231f20"/></g></symbol></svg>